# xmcd
#
# Track frame offsets:
#	150
#	18239
#	37182
#	62760
#	89239
#	114465
#	137143
#	161919
#	180419
#
# Disc length: 2540 seconds
#
# Revision: 0
# Processed by: cddbd v1.5.1PL0 Copyright (c) Steve Scherf et al.
# Submitted via: dBpowerAMP V4.0
#
DISCID=7d09ea09
DTITLE=Cowboy Junkies - Live From Liberty Lunch
DYEAR=1989
DGENRE=Blues
TTITLE0=Sweet Jane
TTITLE1=Thirty Summers
TTITLE2=Captain Kidd
TTITLE3=Misguided Angel
TTITLE4=Dust My Broom
TTITLE5=To Love in to Bury
TTITLE6=Dead Flowers
TTITLE7=You Will Be Loved Again
TTITLE8=Mining for Gold
EXTD=
EXTT0=
EXTT1=
EXTT2=
EXTT3=
EXTT4=
EXTT5=
EXTT6=
EXTT7=
EXTT8=
PLAYORDER=
